<?xml version="1.0" encoding="utf-8"?>
<!-- Generator: Adobe Illustrator 26.3.1, SVG Export Plug-In . SVG Version: 6.00 Build 0)  -->
<svg version="1.1" id="Layer_1" xmlns="http://www.w3.org/2000/svg" xmlns:xlink="http://www.w3.org/1999/xlink" x="0px" y="0px"
	 viewBox="0 0 50 50" style="enable-background:new 0 0 50 50;" xml:space="preserve">
<style type="text/css">
	.st0{fill:#FF9100;}
	.st1{fill:#F4EF07;}
	.st2{fill:#00F3FF;}
	.st3{fill:#EA057E;}
	.st4{fill:#05EAC4;}
</style>
<path class="st0" d="M38,32.5c-2.2,3.2-5.2,5.8-8.8,7.4l7.7,8.6l8.6-7.7L38,32.5z"/>
<path class="st1" d="M12.4,32.6l-7.2,8.3l8.6,7.4l7.3-8.4C17.6,38.3,14.6,35.7,12.4,32.6z"/>
<path class="st2" d="M15,16.6l0.2-0.6L4.6,11.8L0.4,22.5l10.6,4.1C11.5,22.9,12.9,19.4,15,16.6z"/>
<path class="st3" d="M25.2,12.9c2.1,0,4.2,0.3,6.2,0.9V1.5H19v12.2C21,13.2,23.1,12.9,25.2,12.9z"/>
<path class="st4" d="M39.4,26.7L50,22.4l-4.2-10.6L35.1,16l0.1,0.2C37.5,19.2,39,22.8,39.4,26.7z"/>
</svg>
